<?xml version="1.0" encoding="utf-8"?>
<!-- Generator: Adobe Illustrator 24.3.0, SVG Export Plug-In . SVG Version: 6.00 Build 0)  -->
<svg version="1.1"
	 id="svg2" xmlns:cc="http://creativecommons.org/ns#" xmlns:dc="http://purl.org/dc/elements/1.1/" xmlns:rdf="http://www.w3.org/1999/02/22-rdf-syntax-ns#" xmlns:svg="http://www.w3.org/2000/svg"
	 xmlns="http://www.w3.org/2000/svg" xmlns:xlink="http://www.w3.org/1999/xlink" x="0px" y="0px" viewBox="0 0 618.5 75"
	 style="enable-background:new 0 0 618.5 75;" xml:space="preserve">
<style type="text/css">
	.st0{fill-rule:evenodd;clip-rule:evenodd;fill:#A7A8A9;}
	.st1{fill-rule:evenodd;clip-rule:evenodd;fill:#002E6D;}
</style>
<g>
	<g>
		<g>
			<path class="st0" d="M316.9,13.5l-8.5,15.1c2.6,2.3,4.4,5.7,4.4,9.4c0,6.9-5.6,12.4-12.4,12.4c-1.3,0-2.6-0.2-3.7-0.6l-8.3,15.2
				c3.7,1.6,7.7,2.5,12,2.5c16.3,0,29.6-13.2,29.6-29.6C329.9,27.8,324.7,18.8,316.9,13.5z"/>
			<path class="st0" d="M303.1,25.9l8.5-15.2c-3.5-1.4-7.3-2.2-11.3-2.2c-16.3,0-29.6,13.2-29.6,29.6c0,9.9,5,18.7,12.5,24.1
				l8.4-14.8l0.2-0.2c-2.4-2.3-3.9-5.5-3.9-9.1c0-6.9,5.6-12.4,12.4-12.4C301.2,25.6,302.2,25.7,303.1,25.9z"/>
		</g>
		<g>
			<path class="st0" d="M427.8,13.5l-8.5,15.1c2.6,2.3,4.4,5.7,4.4,9.4c0,6.9-5.6,12.4-12.4,12.4c-1.3,0-2.6-0.2-3.7-0.6l-8.3,15.2
				c3.7,1.6,7.7,2.5,12,2.5c16.3,0,29.6-13.2,29.6-29.6C440.9,27.8,435.7,18.8,427.8,13.5z"/>
			<path class="st0" d="M414.1,25.9l8.5-15.2c-3.5-1.4-7.3-2.2-11.3-2.2c-16.3,0-29.6,13.2-29.6,29.6c0,9.9,5,18.7,12.5,24.1
				l8.4-14.8l0.2-0.2c-2.4-2.3-3.9-5.5-3.9-9.1c0-6.9,5.6-12.4,12.4-12.4C412.2,25.6,413.2,25.7,414.1,25.9z"/>
		</g>
		<polygon class="st0" points="332.9,9.8 378.6,9.8 378.6,27.9 364.3,27.9 364.3,66.1 347.2,66.1 347.2,27.9 332.9,27.9 		"/>
		<path class="st0" d="M487.1,40.9c2.7,3,3.7,6.9,3.7,10.5c0,8.1-6.6,14.7-14.7,14.7h-0.2h-29.6V48.9h19.2c1,0,1.9-0.2,1.9-1.2
			c0-0.6-0.3-1.1-0.7-1.5l-15.5-10.3c-3.3-2.7-5.3-6.8-5.3-11.3c0-8.1,6.6-14.7,14.7-14.7h27.2v15.8h-17.4c-1,0-1.9,0.2-1.9,1.2
			c0,0.4,0.2,0.9,0.4,1.2L487.1,40.9z"/>
		<g>
			<polygon class="st0" points="532.2,25.7 510,66.1 489.9,66.1 522.3,7.4 			"/>
			<polygon class="st0" points="534.9,30.7 554.7,66.1 535,66.1 525.5,47.8 			"/>
		</g>
		<polygon class="st0" points="573.4,66.1 556.2,66.1 556.2,7.4 587.4,31.8 587.4,9.8 604.9,9.8 604.9,67.6 573.4,43.2 		"/>
	</g>
	<g>
		<polygon class="st1" points="13.1,66.2 31.2,66.2 31.2,43.1 53.4,43.1 53.4,31.2 31.2,31.2 31.2,21.6 56.9,21.6 56.9,8.8 
			13.1,8.8 		"/>
		<path class="st1" d="M81.9,37.5c0-9.1,3.5-16.7,12.4-16.7c8.9,0,12.4,7.6,12.4,16.7c0,8.6-3.5,16.7-12.4,16.7
			C85.5,54.2,81.9,46.1,81.9,37.5z M64.1,37.5c0,18.3,10.5,29.7,30.2,29.7c19.7,0,30.2-11.4,30.2-29.7c0-18.4-10.4-29.7-30.2-29.7
			S64.1,19.1,64.1,37.5z"/>
		<path class="st1" d="M151.8,19.6h3.4c6.4,0,12.3,1,12.3,6.3c0,6.5-6.9,6.7-12.3,6.7h-3.4V19.6z M134,66.2h17.9V43.5h2.5
			c3.4,0,5.8,1.7,10.8,11.2l5.7,11.5h19.6l-8.2-15.6c-3.2-7-4.5-8.9-10-10.2c8.2-1.9,13.2-8,13.2-15.6c0-9.9-6.6-16-21.4-16H134
			V66.2z"/>
		<path class="st1" d="M214.1,21.6h6.2c8.8,0,11.8,4.4,11.8,15.9c0,11.4-4.6,15.9-11.8,15.9h-6.2V21.6z M196,66.2H218
			c20.6,0,31.7-7.5,31.7-29C249.7,15,239,8.8,218,8.8H196V66.2z"/>
	</g>
</g>
</svg>
